<svg xmlns="http://www.w3.org/2000/svg" xmlns:xlink="http://www.w3.org/1999/xlink" width="500" zoomAndPan="magnify" viewBox="0 0 375 374.999991" height="500" preserveAspectRatio="xMidYMid meet" version="1.0"><defs><clipPath id="id1"><path d="M 53.890625 53.890625 L 320.890625 53.890625 L 320.890625 320.890625 L 53.890625 320.890625 Z M 53.890625 53.890625 " clip-rule="nonzero"/></clipPath></defs><g clip-path="url(#id1)"><path fill="#000000" d="M 62.789062 196.289062 L 178.488281 196.289062 L 178.488281 311.988281 C 178.488281 316.90625 182.46875 320.890625 187.390625 320.890625 C 192.308594 320.890625 196.289062 316.90625 196.289062 311.988281 L 196.289062 196.289062 L 311.988281 196.289062 C 316.910156 196.289062 320.890625 192.304688 320.890625 187.390625 C 320.890625 182.472656 316.910156 178.488281 311.988281 178.488281 L 196.289062 178.488281 L 196.289062 62.789062 C 196.289062 57.875 192.308594 53.890625 187.390625 53.890625 C 182.46875 53.890625 178.488281 57.875 178.488281 62.789062 L 178.488281 178.488281 L 62.789062 178.488281 C 57.871094 178.488281 53.890625 182.472656 53.890625 187.390625 C 53.890625 192.304688 57.871094 196.289062 62.789062 196.289062 Z M 62.789062 196.289062 " fill-opacity="1" fill-rule="nonzero"/></g></svg>