<svg xmlns="http://www.w3.org/2000/svg" xmlns:xlink="http://www.w3.org/1999/xlink" width="500" zoomAndPan="magnify" viewBox="0 0 375 374.999991" height="500" preserveAspectRatio="xMidYMid meet" version="1.0"><defs><clipPath id="id1"><path d="M 50.929688 50.929688 L 323.929688 50.929688 L 323.929688 323.929688 L 50.929688 323.929688 Z M 50.929688 50.929688 " clip-rule="nonzero"/></clipPath></defs><g clip-path="url(#id1)"><path fill="#1cd5a6" d="M 320.304688 72.125 L 204.976562 187.429688 L 320.304688 302.734375 C 322.550781 304.980469 323.941406 308.09375 323.941406 311.519531 C 323.941406 318.382812 318.382812 323.941406 311.519531 323.941406 C 308.09375 323.941406 304.980469 322.550781 302.734375 320.304688 L 187.429688 204.976562 L 72.125 320.304688 C 69.878906 322.550781 66.761719 323.941406 63.335938 323.941406 C 56.476562 323.941406 50.917969 318.382812 50.917969 311.519531 C 50.917969 308.09375 52.304688 304.980469 54.550781 302.734375 L 169.882812 187.429688 L 54.550781 72.125 C 52.304688 69.878906 50.917969 66.761719 50.917969 63.335938 C 50.917969 56.476562 56.476562 50.917969 63.335938 50.917969 C 66.761719 50.917969 69.878906 52.304688 72.125 54.550781 L 187.429688 169.882812 L 302.734375 54.550781 C 304.980469 52.304688 308.09375 50.917969 311.519531 50.917969 C 318.382812 50.917969 323.941406 56.476562 323.941406 63.335938 C 323.941406 66.761719 322.550781 69.878906 320.304688 72.125 Z M 320.304688 72.125 " fill-opacity="1" fill-rule="nonzero"/></g></svg>