<svg xmlns="http://www.w3.org/2000/svg" xmlns:xlink="http://www.w3.org/1999/xlink" width="500" zoomAndPan="magnify" viewBox="0 0 375 374.999991" height="500" preserveAspectRatio="xMidYMid meet" version="1.0"><defs><clipPath id="id1"><path d="M 81.726562 62.691406 L 293.238281 62.691406 L 293.238281 312.441406 L 81.726562 312.441406 Z M 81.726562 62.691406 " clip-rule="nonzero"/></clipPath></defs><path fill="#1cd5a6" d="M 223.839844 153.09375 C 220.351562 153.09375 217.667969 155.515625 217.667969 158.730469 L 217.667969 269.515625 C 217.667969 272.742188 220.351562 275.152344 223.839844 275.152344 C 227.316406 275.152344 230 272.742188 230 269.515625 L 230 158.992188 C 229.738281 155.777344 227.054688 153.09375 223.839844 153.09375 " fill-opacity="1" fill-rule="nonzero"/><path fill="#1cd5a6" d="M 151.683594 153.09375 C 148.195312 153.09375 145.511719 155.515625 145.511719 158.730469 L 145.511719 269.515625 C 145.511719 272.742188 148.195312 275.152344 151.683594 275.152344 C 155.171875 275.152344 157.855469 272.742188 157.855469 269.515625 L 157.855469 158.992188 C 157.855469 155.777344 154.898438 153.09375 151.683594 153.09375 " fill-opacity="1" fill-rule="nonzero"/><g clip-path="url(#id1)"><path fill="#1cd5a6" d="M 105.019531 104.804688 L 270.230469 104.804688 C 276.402344 104.804688 281.230469 109.636719 281.230469 115.273438 C 281.230469 120.902344 276.402344 125.734375 270.230469 125.734375 L 105.019531 125.734375 C 98.847656 125.734375 94.019531 120.902344 94.019531 115.273438 C 94.019531 109.636719 98.847656 104.804688 105.019531 104.804688 Z M 148.46875 85.765625 C 148.46875 82.539062 149.808594 79.855469 151.957031 77.445312 C 154.367188 75.296875 157.320312 74.230469 160.535156 74.230469 L 214.714844 74.230469 C 217.929688 74.230469 220.882812 75.570312 223.292969 77.445312 C 225.714844 79.59375 226.78125 82.539062 226.78125 85.765625 L 226.78125 93.007812 L 148.738281 93.007812 Z M 245.558594 300.636719 L 129.691406 300.636719 C 119.234375 300.636719 110.917969 292.054688 110.917969 281.0625 L 110.917969 137.53125 L 263.796875 137.53125 L 263.796875 281.324219 C 264.070312 292.328125 256.023438 300.636719 245.558594 300.636719 Z M 99.121094 136.996094 L 99.121094 281.0625 C 99.121094 289.644531 102.335938 297.417969 107.960938 303.320312 C 113.597656 308.957031 121.644531 312.445312 129.691406 312.445312 L 245.296875 312.445312 C 253.605469 312.445312 261.386719 309.21875 267.015625 303.320312 C 272.652344 297.691406 275.867188 289.644531 275.867188 281.0625 L 275.867188 136.996094 C 287.128906 134.054688 294.644531 123.855469 293.03125 112.59375 C 291.425781 101.316406 281.503906 93.007812 269.96875 93.007812 L 238.851562 93.007812 L 238.851562 85.765625 C 238.851562 79.59375 236.441406 73.695312 231.886719 69.398438 C 227.316406 64.839844 221.15625 62.691406 214.714844 62.691406 L 160.535156 62.691406 C 154.105469 62.691406 147.933594 64.839844 143.375 69.398438 C 138.808594 73.695312 136.398438 79.59375 136.398438 85.765625 L 136.398438 93.007812 L 105.019531 93.007812 C 93.484375 93.007812 83.289062 101.316406 81.949219 112.59375 C 80.34375 123.585938 87.585938 134.054688 99.121094 136.996094 " fill-opacity="1" fill-rule="nonzero"/></g><path fill="#1cd5a6" d="M 187.628906 153.09375 C 184.140625 153.09375 181.460938 155.515625 181.460938 158.730469 L 181.460938 269.515625 C 181.460938 272.742188 184.140625 275.152344 187.628906 275.152344 C 191.109375 275.152344 193.789062 272.742188 193.789062 269.515625 L 193.789062 158.992188 C 193.789062 155.777344 191.109375 153.09375 187.628906 153.09375 " fill-opacity="1" fill-rule="nonzero"/></svg>