<svg xmlns="http://www.w3.org/2000/svg" xmlns:xlink="http://www.w3.org/1999/xlink" width="500" zoomAndPan="magnify" viewBox="0 0 375 374.999991" height="500" preserveAspectRatio="xMidYMid meet" version="1.0"><defs><clipPath id="id1"><path d="M 53.789062 53.789062 L 321.539062 53.789062 L 321.539062 321.539062 L 53.789062 321.539062 Z M 53.789062 53.789062 " clip-rule="nonzero"/></clipPath></defs><g clip-path="url(#id1)"><path fill="#6980c4" d="M 187.664062 321.539062 C 189.855469 321.539062 192.046875 321.484375 194.234375 321.378906 C 196.421875 321.269531 198.605469 321.109375 200.785156 320.894531 C 202.96875 320.679688 205.140625 320.410156 207.308594 320.089844 C 209.476562 319.769531 211.632812 319.394531 213.78125 318.96875 C 215.929688 318.539062 218.066406 318.058594 220.195312 317.527344 C 222.320312 316.996094 224.429688 316.410156 226.527344 315.773438 C 228.621094 315.140625 230.703125 314.453125 232.765625 313.714844 C 234.828125 312.976562 236.871094 312.1875 238.894531 311.347656 C 240.921875 310.511719 242.921875 309.621094 244.902344 308.6875 C 246.882812 307.75 248.839844 306.765625 250.773438 305.730469 C 252.703125 304.699219 254.609375 303.621094 256.488281 302.492188 C 258.371094 301.367188 260.21875 300.195312 262.042969 298.976562 C 263.863281 297.761719 265.652344 296.5 267.414062 295.195312 C 269.171875 293.890625 270.898438 292.542969 272.59375 291.152344 C 274.289062 289.761719 275.945312 288.332031 277.570312 286.859375 C 279.191406 285.386719 280.777344 283.878906 282.328125 282.328125 C 283.878906 280.777344 285.386719 279.191406 286.859375 277.570312 C 288.332031 275.945312 289.761719 274.289062 291.152344 272.59375 C 292.542969 270.898438 293.886719 269.171875 295.195312 267.414062 C 296.5 265.652344 297.761719 263.863281 298.976562 262.042969 C 300.195312 260.21875 301.367188 258.371094 302.492188 256.488281 C 303.621094 254.609375 304.699219 252.703125 305.730469 250.773438 C 306.765625 248.839844 307.75 246.882812 308.6875 244.902344 C 309.621094 242.921875 310.511719 240.921875 311.347656 238.894531 C 312.1875 236.871094 312.976562 234.828125 313.714844 232.765625 C 314.453125 230.703125 315.140625 228.621094 315.773438 226.527344 C 316.410156 224.429688 316.996094 222.320312 317.527344 220.191406 C 318.058594 218.066406 318.539062 215.929688 318.96875 213.78125 C 319.394531 211.632812 319.769531 209.476562 320.089844 207.308594 C 320.410156 205.140625 320.679688 202.96875 320.894531 200.785156 C 321.109375 198.605469 321.269531 196.421875 321.378906 194.234375 C 321.484375 192.046875 321.539062 189.855469 321.539062 187.664062 C 321.539062 185.472656 321.484375 183.285156 321.378906 181.09375 C 321.269531 178.90625 321.109375 176.722656 320.894531 174.542969 C 320.679688 172.363281 320.410156 170.1875 320.089844 168.019531 C 319.769531 165.855469 319.394531 163.695312 318.96875 161.546875 C 318.539062 159.398438 318.058594 157.261719 317.527344 155.136719 C 316.996094 153.011719 316.410156 150.898438 315.773438 148.800781 C 315.140625 146.707031 314.453125 144.625 313.714844 142.5625 C 312.976562 140.5 312.1875 138.457031 311.347656 136.433594 C 310.511719 134.410156 309.621094 132.40625 308.6875 130.425781 C 307.75 128.445312 306.765625 126.488281 305.730469 124.554688 C 304.699219 122.625 303.621094 120.71875 302.492188 118.839844 C 301.367188 116.960938 300.195312 115.109375 298.976562 113.289062 C 297.761719 111.464844 296.5 109.675781 295.195312 107.914062 C 293.886719 106.15625 292.542969 104.429688 291.152344 102.734375 C 289.761719 101.042969 288.332031 99.382812 286.859375 97.757812 C 285.386719 96.136719 283.878906 94.550781 282.328125 93 C 280.777344 91.453125 279.191406 89.941406 277.570312 88.46875 C 275.945312 87 274.289062 85.566406 272.59375 84.175781 C 270.898438 82.789062 269.171875 81.441406 267.414062 80.136719 C 265.652344 78.828125 263.863281 77.570312 262.042969 76.351562 C 260.21875 75.132812 258.367188 73.960938 256.488281 72.835938 C 254.609375 71.710938 252.703125 70.628906 250.773438 69.597656 C 248.839844 68.5625 246.882812 67.578125 244.902344 66.644531 C 242.921875 65.707031 240.921875 64.820312 238.894531 63.980469 C 236.871094 63.140625 234.828125 62.351562 232.765625 61.613281 C 230.703125 60.878906 228.621094 60.191406 226.527344 59.554688 C 224.429688 58.917969 222.320312 58.332031 220.195312 57.800781 C 218.066406 57.269531 215.929688 56.789062 213.78125 56.363281 C 211.632812 55.933594 209.476562 55.558594 207.308594 55.238281 C 205.140625 54.917969 202.96875 54.648438 200.785156 54.433594 C 198.605469 54.21875 196.421875 54.058594 194.234375 53.949219 C 192.046875 53.84375 189.855469 53.789062 187.664062 53.789062 C 185.472656 53.789062 183.285156 53.84375 181.09375 53.949219 C 178.90625 54.058594 176.722656 54.21875 174.542969 54.433594 C 172.363281 54.648438 170.1875 54.917969 168.019531 55.238281 C 165.855469 55.558594 163.695312 55.933594 161.546875 56.363281 C 159.398438 56.789062 157.261719 57.269531 155.136719 57.800781 C 153.011719 58.332031 150.898438 58.917969 148.800781 59.554688 C 146.707031 60.191406 144.625 60.878906 142.5625 61.613281 C 140.5 62.351562 138.457031 63.140625 136.433594 63.980469 C 134.410156 64.820312 132.40625 65.707031 130.425781 66.644531 C 128.445312 67.578125 126.488281 68.5625 124.554688 69.597656 C 122.625 70.628906 120.71875 71.710938 118.839844 72.835938 C 116.960938 73.960938 115.109375 75.132812 113.289062 76.351562 C 111.464844 77.570312 109.675781 78.828125 107.914062 80.136719 C 106.15625 81.441406 104.429688 82.789062 102.734375 84.175781 C 101.042969 85.566406 99.382812 87 97.757812 88.46875 C 96.136719 89.941406 94.550781 91.453125 93 93 C 91.453125 94.550781 89.941406 96.136719 88.46875 97.757812 C 87 99.382812 85.566406 101.042969 84.175781 102.734375 C 82.789062 104.429688 81.441406 106.15625 80.136719 107.914062 C 78.828125 109.675781 77.570312 111.464844 76.351562 113.289062 C 75.132812 115.109375 73.960938 116.960938 72.835938 118.839844 C 71.710938 120.71875 70.628906 122.625 69.597656 124.554688 C 68.5625 126.488281 67.578125 128.445312 66.644531 130.425781 C 65.707031 132.40625 64.820312 134.410156 63.980469 136.433594 C 63.140625 138.457031 62.351562 140.5 61.613281 142.5625 C 60.878906 144.625 60.191406 146.707031 59.554688 148.800781 C 58.917969 150.898438 58.332031 153.011719 57.800781 155.136719 C 57.269531 157.261719 56.789062 159.398438 56.363281 161.546875 C 55.933594 163.695312 55.558594 165.855469 55.238281 168.019531 C 54.917969 170.1875 54.648438 172.363281 54.433594 174.542969 C 54.21875 176.722656 54.058594 178.90625 53.949219 181.09375 C 53.84375 183.285156 53.789062 185.472656 53.789062 187.664062 C 53.792969 189.855469 53.847656 192.042969 53.960938 194.230469 C 54.070312 196.417969 54.234375 198.601562 54.453125 200.78125 C 54.667969 202.960938 54.9375 205.132812 55.261719 207.296875 C 55.585938 209.464844 55.964844 211.621094 56.394531 213.769531 C 56.824219 215.917969 57.304688 218.050781 57.839844 220.175781 C 58.371094 222.300781 58.957031 224.410156 59.597656 226.503906 C 60.234375 228.601562 60.921875 230.679688 61.660156 232.742188 C 62.402344 234.800781 63.191406 236.84375 64.03125 238.867188 C 64.871094 240.890625 65.757812 242.890625 66.695312 244.871094 C 67.632812 246.847656 68.621094 248.804688 69.652344 250.734375 C 70.6875 252.667969 71.765625 254.570312 72.894531 256.449219 C 74.019531 258.328125 75.191406 260.175781 76.410156 261.996094 C 77.628906 263.816406 78.886719 265.605469 80.191406 267.367188 C 81.5 269.125 82.847656 270.851562 84.234375 272.542969 C 85.625 274.234375 87.054688 275.894531 88.527344 277.515625 C 89.996094 279.136719 91.507812 280.722656 93.054688 282.273438 C 94.605469 283.820312 96.191406 285.332031 97.8125 286.800781 C 99.433594 288.273438 101.09375 289.703125 102.785156 291.09375 C 104.480469 292.484375 106.203125 293.832031 107.964844 295.136719 C 109.722656 296.441406 111.511719 297.703125 113.332031 298.917969 C 115.152344 300.136719 117.003906 301.308594 118.878906 302.433594 C 120.757812 303.5625 122.664062 304.640625 124.59375 305.675781 C 126.523438 306.710938 128.480469 307.695312 130.457031 308.632812 C 132.4375 309.570312 134.4375 310.457031 136.460938 311.296875 C 138.484375 312.136719 140.527344 312.925781 142.589844 313.667969 C 144.648438 314.40625 146.726562 315.09375 148.824219 315.730469 C 150.917969 316.371094 153.027344 316.957031 155.152344 317.488281 C 157.277344 318.023438 159.414062 318.507812 161.558594 318.9375 C 163.707031 319.367188 165.863281 319.742188 168.03125 320.066406 C 170.195312 320.390625 172.367188 320.660156 174.546875 320.878906 C 176.726562 321.09375 178.910156 321.257812 181.097656 321.371094 C 183.285156 321.480469 185.472656 321.535156 187.664062 321.539062 Z M 187.664062 68.960938 C 189.605469 68.960938 191.546875 69.007812 193.488281 69.101562 C 195.429688 69.199219 197.367188 69.339844 199.300781 69.53125 C 201.234375 69.722656 203.160156 69.960938 205.082031 70.246094 C 207.003906 70.527344 208.917969 70.859375 210.824219 71.242188 C 212.726562 71.621094 214.621094 72.042969 216.507812 72.515625 C 218.390625 72.988281 220.261719 73.507812 222.121094 74.070312 C 223.980469 74.632812 225.824219 75.242188 227.65625 75.898438 C 229.484375 76.554688 231.296875 77.25 233.089844 77.996094 C 234.886719 78.738281 236.660156 79.527344 238.417969 80.355469 C 240.171875 81.1875 241.910156 82.058594 243.621094 82.976562 C 245.335938 83.890625 247.023438 84.847656 248.691406 85.847656 C 250.355469 86.847656 252 87.886719 253.613281 88.964844 C 255.230469 90.042969 256.816406 91.164062 258.375 92.320312 C 259.9375 93.476562 261.46875 94.671875 262.96875 95.902344 C 264.472656 97.136719 265.941406 98.40625 267.382812 99.710938 C 268.820312 101.015625 270.226562 102.355469 271.601562 103.726562 C 272.976562 105.101562 274.3125 106.507812 275.617188 107.945312 C 276.921875 109.386719 278.191406 110.855469 279.425781 112.359375 C 280.65625 113.859375 281.851562 115.390625 283.007812 116.953125 C 284.167969 118.511719 285.285156 120.101562 286.363281 121.714844 C 287.441406 123.332031 288.480469 124.972656 289.480469 126.636719 C 290.480469 128.304688 291.4375 129.992188 292.351562 131.707031 C 293.269531 133.421875 294.140625 135.15625 294.972656 136.910156 C 295.804688 138.667969 296.589844 140.441406 297.332031 142.238281 C 298.078125 144.03125 298.777344 145.84375 299.429688 147.675781 C 300.085938 149.503906 300.695312 151.347656 301.257812 153.207031 C 301.820312 155.066406 302.339844 156.9375 302.8125 158.820312 C 303.285156 160.707031 303.710938 162.601562 304.089844 164.507812 C 304.46875 166.410156 304.800781 168.324219 305.085938 170.246094 C 305.371094 172.167969 305.605469 174.097656 305.796875 176.03125 C 305.988281 177.960938 306.132812 179.898438 306.226562 181.839844 C 306.320312 183.78125 306.371094 185.722656 306.371094 187.664062 C 306.371094 189.605469 306.320312 191.546875 306.226562 193.488281 C 306.132812 195.429688 305.988281 197.367188 305.796875 199.300781 C 305.609375 201.234375 305.371094 203.160156 305.085938 205.082031 C 304.800781 207.003906 304.46875 208.917969 304.089844 210.824219 C 303.710938 212.726562 303.285156 214.621094 302.8125 216.507812 C 302.339844 218.390625 301.820312 220.261719 301.257812 222.121094 C 300.695312 223.980469 300.085938 225.824219 299.429688 227.65625 C 298.777344 229.484375 298.078125 231.296875 297.332031 233.089844 C 296.589844 234.886719 295.804688 236.660156 294.972656 238.417969 C 294.140625 240.171875 293.269531 241.910156 292.351562 243.621094 C 291.4375 245.335938 290.480469 247.023438 289.480469 248.691406 C 288.480469 250.355469 287.441406 252 286.363281 253.613281 C 285.285156 255.230469 284.167969 256.816406 283.007812 258.375 C 281.851562 259.9375 280.65625 261.46875 279.425781 262.96875 C 278.191406 264.472656 276.921875 265.941406 275.617188 267.382812 C 274.3125 268.820312 272.976562 270.226562 271.601562 271.601562 C 270.226562 272.976562 268.820312 274.3125 267.382812 275.617188 C 265.941406 276.921875 264.472656 278.191406 262.96875 279.425781 C 261.46875 280.65625 259.9375 281.851562 258.375 283.007812 C 256.816406 284.167969 255.230469 285.285156 253.613281 286.363281 C 252 287.441406 250.355469 288.480469 248.691406 289.480469 C 247.023438 290.480469 245.335938 291.4375 243.621094 292.351562 C 241.910156 293.269531 240.171875 294.140625 238.417969 294.972656 C 236.660156 295.804688 234.886719 296.589844 233.089844 297.332031 C 231.296875 298.078125 229.484375 298.777344 227.65625 299.429688 C 225.824219 300.085938 223.980469 300.695312 222.121094 301.257812 C 220.261719 301.820312 218.390625 302.339844 216.507812 302.8125 C 214.621094 303.285156 212.726562 303.710938 210.824219 304.089844 C 208.917969 304.46875 207.003906 304.800781 205.082031 305.085938 C 203.160156 305.371094 201.234375 305.609375 199.300781 305.796875 C 197.367188 305.988281 195.429688 306.132812 193.488281 306.226562 C 191.546875 306.320312 189.605469 306.371094 187.664062 306.371094 C 185.722656 306.371094 183.78125 306.320312 181.839844 306.226562 C 179.898438 306.132812 177.960938 305.988281 176.03125 305.796875 C 174.097656 305.609375 172.167969 305.371094 170.246094 305.085938 C 168.324219 304.800781 166.410156 304.46875 164.507812 304.089844 C 162.601562 303.710938 160.707031 303.285156 158.820312 302.8125 C 156.9375 302.339844 155.066406 301.820312 153.207031 301.257812 C 151.347656 300.695312 149.503906 300.085938 147.675781 299.429688 C 145.84375 298.777344 144.03125 298.078125 142.238281 297.332031 C 140.441406 296.589844 138.667969 295.804688 136.910156 294.972656 C 135.15625 294.140625 133.421875 293.269531 131.707031 292.351562 C 129.992188 291.4375 128.304688 290.480469 126.636719 289.480469 C 124.972656 288.480469 123.332031 287.441406 121.714844 286.363281 C 120.101562 285.285156 118.511719 284.167969 116.953125 283.007812 C 115.390625 281.851562 113.859375 280.65625 112.359375 279.425781 C 110.855469 278.191406 109.386719 276.921875 107.945312 275.617188 C 106.507812 274.3125 105.101562 272.976562 103.726562 271.601562 C 102.355469 270.226562 101.015625 268.820312 99.710938 267.382812 C 98.40625 265.941406 97.136719 264.472656 95.902344 262.96875 C 94.671875 261.46875 93.476562 259.9375 92.320312 258.375 C 91.164062 256.816406 90.042969 255.230469 88.964844 253.613281 C 87.886719 252 86.847656 250.355469 85.847656 248.691406 C 84.847656 247.023438 83.890625 245.335938 82.976562 243.621094 C 82.058594 241.910156 81.1875 240.171875 80.355469 238.417969 C 79.527344 236.660156 78.738281 234.886719 77.996094 233.089844 C 77.25 231.296875 76.554688 229.484375 75.898438 227.65625 C 75.242188 225.824219 74.632812 223.980469 74.070312 222.121094 C 73.507812 220.261719 72.988281 218.390625 72.515625 216.507812 C 72.042969 214.621094 71.621094 212.726562 71.242188 210.824219 C 70.859375 208.917969 70.527344 207.003906 70.246094 205.082031 C 69.960938 203.160156 69.722656 201.234375 69.53125 199.300781 C 69.339844 197.367188 69.199219 195.429688 69.101562 193.488281 C 69.007812 191.546875 68.960938 189.605469 68.960938 187.664062 C 68.960938 185.722656 69.011719 183.78125 69.109375 181.839844 C 69.203125 179.902344 69.347656 177.964844 69.542969 176.03125 C 69.734375 174.101562 69.972656 172.171875 70.257812 170.253906 C 70.546875 168.332031 70.878906 166.417969 71.257812 164.515625 C 71.640625 162.609375 72.066406 160.714844 72.539062 158.832031 C 73.011719 156.949219 73.53125 155.078125 74.097656 153.21875 C 74.660156 151.359375 75.269531 149.515625 75.925781 147.6875 C 76.582031 145.859375 77.28125 144.050781 78.027344 142.253906 C 78.769531 140.460938 79.558594 138.6875 80.386719 136.929688 C 81.21875 135.175781 82.09375 133.441406 83.007812 131.730469 C 83.925781 130.015625 84.882812 128.328125 85.882812 126.664062 C 86.882812 124.996094 87.921875 123.355469 89 121.742188 C 90.078125 120.128906 91.199219 118.539062 92.355469 116.980469 C 93.511719 115.421875 94.707031 113.890625 95.9375 112.390625 C 97.171875 110.886719 98.441406 109.417969 99.742188 107.980469 C 101.046875 106.539062 102.386719 105.132812 103.761719 103.761719 C 105.132812 102.386719 106.539062 101.046875 107.980469 99.742188 C 109.417969 98.441406 110.886719 97.171875 112.390625 95.9375 C 113.890625 94.707031 115.421875 93.511719 116.980469 92.355469 C 118.539062 91.199219 120.128906 90.078125 121.742188 89 C 123.355469 87.921875 124.996094 86.882812 126.664062 85.882812 C 128.328125 84.882812 130.015625 83.925781 131.730469 83.007812 C 133.441406 82.09375 135.175781 81.21875 136.929688 80.386719 C 138.6875 79.558594 140.460938 78.769531 142.253906 78.027344 C 144.050781 77.28125 145.859375 76.582031 147.6875 75.925781 C 149.515625 75.269531 151.359375 74.660156 153.21875 74.097656 C 155.078125 73.53125 156.949219 73.011719 158.832031 72.539062 C 160.714844 72.066406 162.609375 71.640625 164.515625 71.257812 C 166.417969 70.878906 168.332031 70.546875 170.253906 70.257812 C 172.171875 69.972656 174.101562 69.734375 176.03125 69.542969 C 177.964844 69.347656 179.902344 69.203125 181.839844 69.109375 C 183.78125 69.011719 185.722656 68.960938 187.664062 68.960938 Z M 187.664062 68.960938 " fill-opacity="1" fill-rule="nonzero"/></g><path fill="#6980c4" d="M 156.640625 180.078125 L 156.640625 195.25 L 271.476562 193.960938 L 247.625 213.910156 L 257.484375 225.589844 L 297.648438 191.949219 C 298.550781 191.199219 299.242188 190.285156 299.722656 189.214844 C 300.199219 188.140625 300.417969 187.019531 300.378906 185.84375 C 300.316406 184.695312 300.011719 183.613281 299.460938 182.601562 C 298.90625 181.59375 298.164062 180.75 297.230469 180.078125 L 254.679688 149.738281 L 245.839844 162.066406 L 269.582031 179.09375 Z M 156.640625 180.078125 " fill-opacity="1" fill-rule="nonzero"/><path fill="#6980c4" d="M 130.964844 262.148438 L 222.328125 262.148438 C 222.90625 262.148438 223.480469 262.117188 224.058594 262.0625 C 224.632812 262.003906 225.203125 261.917969 225.769531 261.804688 C 226.335938 261.691406 226.894531 261.550781 227.449219 261.382812 C 228 261.21875 228.546875 261.023438 229.078125 260.800781 C 229.613281 260.582031 230.136719 260.335938 230.644531 260.066406 C 231.15625 259.792969 231.652344 259.496094 232.132812 259.179688 C 232.613281 258.859375 233.078125 258.515625 233.527344 258.152344 C 233.972656 257.785156 234.402344 257.398438 234.8125 256.992188 C 235.222656 256.585938 235.613281 256.160156 235.984375 255.714844 C 236.351562 255.269531 236.699219 254.808594 237.023438 254.332031 C 237.34375 253.851562 237.644531 253.359375 237.921875 252.851562 C 238.195312 252.34375 238.449219 251.824219 238.671875 251.292969 C 238.898438 250.757812 239.097656 250.21875 239.269531 249.667969 C 239.441406 249.113281 239.585938 248.554688 239.703125 247.992188 C 239.820312 247.425781 239.910156 246.855469 239.972656 246.28125 C 240.035156 245.707031 240.070312 245.128906 240.078125 244.550781 L 240.078125 214.210938 L 224.90625 214.210938 L 224.90625 244.550781 C 224.90625 244.894531 224.839844 245.226562 224.710938 245.542969 C 224.582031 245.863281 224.394531 246.144531 224.152344 246.390625 C 223.914062 246.632812 223.632812 246.824219 223.316406 246.957031 C 223 247.09375 222.671875 247.164062 222.328125 247.167969 L 130.964844 247.167969 C 130.621094 247.167969 130.285156 247.101562 129.964844 246.96875 C 129.644531 246.835938 129.363281 246.648438 129.117188 246.402344 C 128.871094 246.15625 128.683594 245.875 128.550781 245.554688 C 128.417969 245.234375 128.351562 244.898438 128.351562 244.550781 L 128.351562 130.964844 C 128.351562 130.621094 128.417969 130.285156 128.550781 129.964844 C 128.683594 129.644531 128.871094 129.363281 129.117188 129.117188 C 129.363281 128.871094 129.644531 128.683594 129.964844 128.550781 C 130.285156 128.417969 130.621094 128.351562 130.964844 128.351562 L 222.328125 128.351562 C 222.671875 128.355469 223 128.425781 223.316406 128.558594 C 223.632812 128.695312 223.914062 128.882812 224.152344 129.128906 C 224.394531 129.375 224.582031 129.65625 224.710938 129.972656 C 224.839844 130.292969 224.90625 130.621094 224.90625 130.964844 L 224.90625 159.03125 L 240.078125 159.03125 L 240.078125 130.964844 C 240.078125 130.386719 240.046875 129.804688 239.992188 129.226562 C 239.933594 128.648438 239.847656 128.070312 239.734375 127.5 C 239.621094 126.929688 239.480469 126.367188 239.3125 125.808594 C 239.144531 125.253906 238.949219 124.707031 238.726562 124.167969 C 238.503906 123.632812 238.257812 123.105469 237.980469 122.59375 C 237.707031 122.078125 237.410156 121.582031 237.085938 121.097656 C 236.765625 120.613281 236.417969 120.144531 236.050781 119.695312 C 235.679688 119.246094 235.292969 118.816406 234.878906 118.402344 C 234.46875 117.992188 234.039062 117.601562 233.589844 117.230469 C 233.140625 116.859375 232.675781 116.515625 232.191406 116.191406 C 231.707031 115.867188 231.210938 115.566406 230.699219 115.292969 C 230.183594 115.015625 229.660156 114.769531 229.121094 114.542969 C 228.585938 114.320312 228.039062 114.125 227.484375 113.953125 C 226.925781 113.785156 226.363281 113.644531 225.792969 113.527344 C 225.222656 113.414062 224.648438 113.328125 224.070312 113.269531 C 223.488281 113.210938 222.910156 113.179688 222.328125 113.179688 L 130.964844 113.179688 C 130.382812 113.179688 129.804688 113.207031 129.222656 113.265625 C 128.644531 113.324219 128.066406 113.40625 127.496094 113.523438 C 126.925781 113.636719 126.359375 113.777344 125.804688 113.945312 C 125.246094 114.113281 124.699219 114.3125 124.160156 114.535156 C 123.621094 114.757812 123.097656 115.003906 122.582031 115.28125 C 122.066406 115.554688 121.570312 115.855469 121.085938 116.175781 C 120.601562 116.5 120.132812 116.847656 119.683594 117.21875 C 119.234375 117.585938 118.800781 117.976562 118.390625 118.390625 C 117.976562 118.800781 117.585938 119.234375 117.21875 119.683594 C 116.847656 120.132812 116.5 120.601562 116.175781 121.085938 C 115.855469 121.570312 115.554688 122.066406 115.28125 122.582031 C 115.003906 123.097656 114.757812 123.621094 114.535156 124.160156 C 114.3125 124.699219 114.113281 125.246094 113.945312 125.804688 C 113.777344 126.359375 113.636719 126.925781 113.523438 127.496094 C 113.40625 128.066406 113.324219 128.644531 113.265625 129.222656 C 113.207031 129.804688 113.179688 130.382812 113.179688 130.964844 L 113.179688 244.550781 C 113.1875 245.128906 113.21875 245.707031 113.28125 246.28125 C 113.34375 246.859375 113.433594 247.429688 113.554688 247.996094 C 113.671875 248.5625 113.816406 249.121094 113.988281 249.671875 C 114.164062 250.226562 114.363281 250.765625 114.585938 251.300781 C 114.8125 251.832031 115.0625 252.351562 115.339844 252.863281 C 115.617188 253.371094 115.917969 253.863281 116.242188 254.34375 C 116.566406 254.820312 116.914062 255.28125 117.285156 255.726562 C 117.652344 256.171875 118.042969 256.597656 118.457031 257.007812 C 118.867188 257.414062 119.296875 257.800781 119.746094 258.164062 C 120.195312 258.527344 120.660156 258.871094 121.144531 259.191406 C 121.625 259.511719 122.121094 259.804688 122.632812 260.078125 C 123.144531 260.347656 123.667969 260.59375 124.203125 260.8125 C 124.738281 261.03125 125.28125 261.226562 125.835938 261.394531 C 126.390625 261.558594 126.953125 261.699219 127.519531 261.8125 C 128.085938 261.925781 128.660156 262.007812 129.234375 262.0625 C 129.8125 262.121094 130.386719 262.148438 130.964844 262.148438 Z M 130.964844 262.148438 " fill-opacity="1" fill-rule="nonzero"/></svg>