<svg xmlns="http://www.w3.org/2000/svg" xmlns:xlink="http://www.w3.org/1999/xlink" width="500" zoomAndPan="magnify" viewBox="0 0 375 374.999991" height="500" preserveAspectRatio="xMidYMid meet" version="1.0"><defs><clipPath id="id1"><path d="M 50 115.40625 L 325 115.40625 L 325 259 L 50 259 Z M 50 115.40625 " clip-rule="nonzero"/></clipPath></defs><g clip-path="url(#id1)"><path fill="#90ecd2" d="M 317.863281 115.324219 C 317.003906 115.34375 316.179688 115.527344 315.390625 115.871094 C 314.605469 116.21875 313.910156 116.699219 313.316406 117.320312 L 187.476562 243.023438 L 61.636719 117.320312 C 61.023438 116.691406 60.3125 116.203125 59.5 115.863281 C 58.6875 115.519531 57.84375 115.347656 56.964844 115.347656 C 56.3125 115.347656 55.679688 115.441406 55.058594 115.632812 C 54.4375 115.820312 53.859375 116.097656 53.320312 116.460938 C 52.78125 116.820312 52.308594 117.253906 51.902344 117.757812 C 51.492188 118.261719 51.164062 118.8125 50.921875 119.414062 C 50.675781 120.011719 50.527344 120.636719 50.46875 121.28125 C 50.410156 121.925781 50.449219 122.566406 50.582031 123.199219 C 50.714844 123.835938 50.9375 124.4375 51.25 125.003906 C 51.5625 125.570312 51.949219 126.082031 52.414062 126.535156 L 182.867188 256.839844 C 183.167969 257.144531 183.496094 257.414062 183.855469 257.652344 C 184.210938 257.890625 184.585938 258.089844 184.980469 258.253906 C 185.378906 258.417969 185.785156 258.539062 186.203125 258.625 C 186.625 258.707031 187.046875 258.75 187.476562 258.75 C 187.90625 258.75 188.328125 258.707031 188.75 258.625 C 189.167969 258.539062 189.578125 258.417969 189.972656 258.253906 C 190.367188 258.089844 190.746094 257.890625 191.101562 257.652344 C 191.457031 257.414062 191.785156 257.144531 192.089844 256.839844 L 322.539062 126.535156 C 323.011719 126.078125 323.410156 125.5625 323.726562 124.988281 C 324.042969 124.414062 324.269531 123.808594 324.402344 123.164062 C 324.539062 122.523438 324.574219 121.875 324.511719 121.21875 C 324.449219 120.566406 324.292969 119.9375 324.039062 119.332031 C 323.785156 118.726562 323.449219 118.171875 323.027344 117.667969 C 322.609375 117.160156 322.121094 116.730469 321.570312 116.375 C 321.019531 116.015625 320.429688 115.746094 319.796875 115.566406 C 319.164062 115.390625 318.519531 115.308594 317.863281 115.324219 Z M 317.863281 115.324219 " fill-opacity="1" fill-rule="nonzero"/></g></svg>