<svg xmlns="http://www.w3.org/2000/svg" xmlns:xlink="http://www.w3.org/1999/xlink" width="500" zoomAndPan="magnify" viewBox="0 0 375 374.999991" height="500" preserveAspectRatio="xMidYMid meet" version="1.0"><defs><clipPath id="id1"><path d="M 143 276 L 233 276 L 233 329.476562 L 143 329.476562 Z M 143 276 " clip-rule="nonzero"/></clipPath><clipPath id="id2"><path d="M 90 46 L 285.636719 46 L 285.636719 268 L 90 268 Z M 90 46 " clip-rule="nonzero"/></clipPath></defs><g clip-path="url(#id1)"><path fill="#1cd5a6" d="M 223.585938 276.371094 L 152.757812 276.371094 C 147.875 276.371094 143.910156 280.339844 143.910156 285.222656 C 143.910156 309.644531 163.765625 329.476562 188.15625 329.476562 C 212.574219 329.476562 232.40625 309.617188 232.40625 285.222656 C 232.433594 280.339844 228.46875 276.371094 223.585938 276.371094 Z M 188.183594 311.777344 C 176.636719 311.777344 166.789062 304.382812 163.144531 294.074219 L 213.222656 294.074219 C 209.554688 304.382812 199.734375 311.777344 188.183594 311.777344 Z M 188.183594 311.777344 " fill-opacity="1" fill-rule="nonzero"/></g><g clip-path="url(#id2)"><path fill="#1cd5a6" d="M 276.792969 103.136719 C 271.179688 90.855469 263.21875 80.035156 253.128906 70.996094 C 243.039062 61.984375 231.460938 55.265625 218.671875 51.054688 C 205.316406 46.65625 191.3125 45.226562 177.09375 46.792969 C 155.996094 49.140625 135.839844 58.71875 120.328125 73.804688 C 104.785156 88.886719 94.640625 108.773438 91.753906 129.796875 C 89.21875 148.226562 91.835938 166.789062 99.335938 183.441406 C 106.511719 199.386719 117.898438 213.148438 132.253906 223.242188 C 139.5625 228.394531 143.933594 236.597656 143.933594 245.179688 L 143.933594 258.671875 C 143.933594 263.554688 147.902344 267.523438 152.785156 267.523438 L 223.609375 267.523438 C 228.496094 267.523438 232.460938 263.554688 232.460938 258.671875 L 232.460938 245.207031 C 232.460938 236.625 236.914062 228.367188 244.386719 223.050781 C 256.851562 214.226562 267.1875 202.464844 274.308594 189.023438 C 281.675781 175.128906 285.558594 159.398438 285.558594 143.558594 C 285.558594 129.472656 282.617188 115.871094 276.792969 103.136719 Z M 234.160156 208.589844 C 221.992188 217.195312 214.734375 230.878906 214.734375 245.179688 L 214.734375 249.792969 L 197.035156 249.792969 L 197.035156 170.136719 L 214.734375 170.136719 C 219.617188 170.136719 223.585938 166.167969 223.585938 161.285156 C 223.585938 156.402344 219.617188 152.433594 214.734375 152.433594 L 161.609375 152.433594 C 156.722656 152.433594 152.757812 156.402344 152.757812 161.285156 C 152.757812 166.167969 156.722656 170.136719 161.609375 170.136719 L 179.308594 170.136719 L 179.308594 249.820312 L 161.609375 249.820312 L 161.609375 245.179688 C 161.609375 230.824219 154.429688 217.195312 142.398438 208.75 C 117.84375 191.480469 105.164062 162.148438 109.265625 132.195312 C 114.121094 96.847656 143.476562 68.324219 179.039062 64.386719 C 202.078125 61.847656 224.175781 68.867188 241.285156 84.191406 C 258.148438 99.304688 267.832031 120.945312 267.832031 143.585938 C 267.859375 169.355469 255.261719 193.667969 234.160156 208.589844 Z M 234.160156 208.589844 " fill-opacity="1" fill-rule="nonzero"/></g></svg>